<?xml version="1.0" encoding="UTF-8" standalone="no"?>
<!DOCTYPE svg PUBLIC "-//W3C//DTD SVG 1.1//EN"
 "http://www.w3.org/Graphics/SVG/1.1/DTD/svg11.dtd">
<!-- Generated by graphviz version 14.1.4 (20260321.0153)
 -->
<!-- Pages: 1 -->
<svg width="450pt" height="480pt"
 viewBox="0.00 0.00 450.00 480.00" xmlns="http://www.w3.org/2000/svg" xmlns:xlink="http://www.w3.org/1999/xlink">
<g id="graph0" class="graph" transform="scale(1 1) rotate(0) translate(4 475.65)">
<polygon fill="#3f3f3f" stroke="none" points="-4,4 -4,-475.65 445.62,-475.65 445.62,4 -4,4"/>
<text xml:space="preserve" text-anchor="middle" x="220.81" y="-7.25" font-family="Times New Roman,serif" font-size="10.00" fill="white">拓扑图</text>
<!-- S1 -->
<g id="node1" class="node">
<title>S1</title>
<polygon fill="#006699" stroke="#006699" points="111.09,-94.1 36.99,-94.1 36.99,-20.75 111.09,-20.75 111.09,-94.1"/>
<text xml:space="preserve" text-anchor="middle" x="74.04" y="-52" font-family="Helvetica,sans-Serif" font-size="14.00" fill="white">S1</text>
</g>
<!-- SZ1 -->
<g id="node3" class="node">
<title>SZ1</title>
<polygon fill="#006699" stroke="#006699" points="190.21,-345.8 107.86,-345.8 107.86,-272.45 190.21,-272.45 190.21,-345.8"/>
<text xml:space="preserve" text-anchor="middle" x="149.04" y="-303.7" font-family="Helvetica,sans-Serif" font-size="14.00" fill="white">SZ1</text>
</g>
<!-- S1&#45;&#45;SZ1 -->
<g id="edge1" class="edge">
<title>S1&#45;&#45;SZ1</title>
<path fill="none" stroke="green" stroke-dasharray="5,2" d="M57.75,-94.31C44.89,-128.11 31.88,-179.47 50.04,-219.95 61.9,-246.41 86.07,-268.19 107.56,-283.48"/>
<text xml:space="preserve" text-anchor="middle" x="99.54" y="-178.23" font-family="Courier,monospace" font-size="14.00" fill="white"> &#160;&#160;&#160;&#160;&#160;&#160;&#160;&#160;&#160;&#160;&#160;</text>
<text xml:space="preserve" text-anchor="middle" x="78.68" y="-270.18" font-family="Courier,monospace" font-size="14.00" fill="white">GE0/0/1</text>
<text xml:space="preserve" text-anchor="middle" x="28.88" y="-97.51" font-family="Courier,monospace" font-size="14.00" fill="white">GE0/0/1</text>
</g>
<!-- S2 -->
<g id="node5" class="node">
<title>S2</title>
<polygon fill="#006699" stroke="#006699" points="232.09,-219.95 157.99,-219.95 157.99,-146.6 232.09,-146.6 232.09,-219.95"/>
<text xml:space="preserve" text-anchor="middle" x="195.04" y="-177.85" font-family="Helvetica,sans-Serif" font-size="14.00" fill="white">S2</text>
</g>
<!-- S1&#45;&#45;S2 -->
<g id="edge2" class="edge">
<title>S1&#45;&#45;S2</title>
<path fill="none" stroke="green" stroke-dasharray="5,2" d="M66.31,-94.52C65.76,-106.46 67.59,-119.11 75.04,-128.6 94.59,-153.54 115.27,-133.31 144.04,-146.6 148.55,-148.68 153.09,-151.17 157.49,-153.85"/>
<text xml:space="preserve" text-anchor="middle" x="124.54" y="-115.3" font-family="Courier,monospace" font-size="14.00" fill="white"> &#160;&#160;&#160;&#160;&#160;&#160;&#160;&#160;&#160;&#160;&#160;</text>
<text xml:space="preserve" text-anchor="middle" x="124.49" y="-140.55" font-family="Courier,monospace" font-size="14.00" fill="white">GE0/0/23</text>
<text xml:space="preserve" text-anchor="middle" x="99.31" y="-97.72" font-family="Courier,monospace" font-size="14.00" fill="white">GE0/0/23</text>
</g>
<!-- S1&#45;&#45;S2 -->
<g id="edge3" class="edge">
<title>S1&#45;&#45;S2</title>
<path fill="none" stroke="green" stroke-dasharray="5,2" d="M111.58,-70.41C132.7,-78.93 157.97,-92.41 174.04,-112.1 181.92,-121.76 186.84,-134.3 189.92,-146.11"/>
<text xml:space="preserve" text-anchor="middle" x="232.81" y="-115.3" font-family="Courier,monospace" font-size="14.00" fill="white"> &#160;&#160;&#160;&#160;&#160;&#160;&#160;&#160;&#160;&#160;&#160;</text>
<text xml:space="preserve" text-anchor="middle" x="222.92" y="-132.81" font-family="Courier,monospace" font-size="14.00" fill="white">GE0/0/24</text>
<text xml:space="preserve" text-anchor="middle" x="144.58" y="-57.11" font-family="Courier,monospace" font-size="14.00" fill="white">GE0/0/24</text>
</g>
<!-- S4 -->
<g id="node2" class="node">
<title>S4</title>
<polygon fill="#006699" stroke="#006699" points="358.09,-219.95 283.99,-219.95 283.99,-146.6 358.09,-146.6 358.09,-219.95"/>
<text xml:space="preserve" text-anchor="middle" x="321.04" y="-177.85" font-family="Helvetica,sans-Serif" font-size="14.00" fill="white">S4</text>
</g>
<!-- S4&#45;&#45;SZ1 -->
<g id="edge6" class="edge">
<title>S4&#45;&#45;SZ1</title>
<path fill="none" stroke="green" stroke-dasharray="5,2" d="M283.8,-209.02C270.52,-217.99 255.52,-228.29 242.04,-237.95 224.94,-250.2 206.38,-264.08 190.38,-276.24"/>
<text xml:space="preserve" text-anchor="middle" x="291.54" y="-241.15" font-family="Courier,monospace" font-size="14.00" fill="white"> &#160;&#160;&#160;&#160;&#160;&#160;&#160;&#160;&#160;&#160;&#160;</text>
<text xml:space="preserve" text-anchor="middle" x="219.25" y="-262.94" font-family="Courier,monospace" font-size="14.00" fill="white">GE1/0/0</text>
<text xml:space="preserve" text-anchor="middle" x="254.92" y="-212.22" font-family="Courier,monospace" font-size="14.00" fill="white">GE0/0/2</text>
</g>
<!-- SZ2 -->
<g id="node4" class="node">
<title>SZ2</title>
<polygon fill="#006699" stroke="#006699" points="278.21,-471.65 195.86,-471.65 195.86,-398.3 278.21,-398.3 278.21,-471.65"/>
<text xml:space="preserve" text-anchor="middle" x="237.04" y="-429.55" font-family="Helvetica,sans-Serif" font-size="14.00" fill="white">SZ2</text>
</g>
<!-- S4&#45;&#45;SZ2 -->
<g id="edge5" class="edge">
<title>S4&#45;&#45;SZ2</title>
<path fill="none" stroke="green" stroke-dasharray="5,2" d="M336.39,-220.16C338.32,-226.01 339.98,-232.08 341.04,-237.95 350.87,-292.49 324.16,-345.79 301.04,-380.3 294.98,-389.34 286.98,-397.68 278.7,-404.97"/>
<text xml:space="preserve" text-anchor="middle" x="392.12" y="-304.08" font-family="Courier,monospace" font-size="14.00" fill="white"> &#160;&#160;&#160;&#160;&#160;&#160;&#160;&#160;&#160;&#160;&#160;</text>
<text xml:space="preserve" text-anchor="middle" x="307.57" y="-391.67" font-family="Courier,monospace" font-size="14.00" fill="white">GE1/0/0</text>
<text xml:space="preserve" text-anchor="middle" x="365.27" y="-223.36" font-family="Courier,monospace" font-size="14.00" fill="white">GE0/0/1</text>
</g>
<!-- SZ1&#45;&#45;SZ2 -->
<g id="edge7" class="edge">
<title>SZ1&#45;&#45;SZ2</title>
<path fill="none" stroke="green" stroke-dasharray="5,2" d="M174.73,-346.28C186.29,-362.56 199.91,-381.73 211.47,-397.99"/>
<text xml:space="preserve" text-anchor="middle" x="247.81" y="-367" font-family="Courier,monospace" font-size="14.00" fill="white"> &#160;&#160;&#160;&#160;&#160;&#160;&#160;&#160;&#160;&#160;&#160;</text>
<text xml:space="preserve" text-anchor="middle" x="182.59" y="-384.69" font-family="Courier,monospace" font-size="14.00" fill="white">GE0/0/0</text>
<text xml:space="preserve" text-anchor="middle" x="145.85" y="-349.48" font-family="Courier,monospace" font-size="14.00" fill="white">GE0/0/0</text>
</g>
<!-- S2&#45;&#45;SZ1 -->
<g id="edge4" class="edge">
<title>S2&#45;&#45;SZ1</title>
<path fill="none" stroke="green" stroke-dasharray="5,2" d="M157.54,-210.57C139.08,-223.6 120.62,-236.82 120.04,-237.95 114.43,-248.85 116.73,-261.1 121.92,-272.27"/>
<text xml:space="preserve" text-anchor="middle" x="169.54" y="-241.15" font-family="Courier,monospace" font-size="14.00" fill="white"> &#160;&#160;&#160;&#160;&#160;&#160;&#160;&#160;&#160;&#160;&#160;</text>
<text xml:space="preserve" text-anchor="middle" x="150.8" y="-258.97" font-family="Courier,monospace" font-size="14.00" fill="white">GE0/0/2</text>
<text xml:space="preserve" text-anchor="middle" x="128.66" y="-197.27" font-family="Courier,monospace" font-size="14.00" fill="white">GE0/0/1</text>
</g>
</g>
</svg>
